<?xml version="1.0" encoding="UTF-8"?>
<svg version="1.1" xmlns="http://www.w3.org/2000/svg" width="486" height="198">
<path d="M0 0 C12.44778352 10.35716965 22.02738487 26.85436029 23.53515625 43.109375 C24.84945378 63.62831906 21.16802212 81.78537237 7.51953125 97.87109375 C6.8646875 98.60972656 6.20984375 99.34835938 5.53515625 100.109375 C5.0040625 100.73457031 4.47296875 101.35976562 3.92578125 102.00390625 C-2.78133987 109.35849698 -12.22377584 114.61158761 -21.46484375 118.109375 C-22.78484375 118.109375 -24.10484375 118.109375 -25.46484375 118.109375 C-28.5903338 108.73290486 -25.29077714 100.7649282 -21.46484375 92.109375 C-21.20300293 91.50496582 -20.94116211 90.90055664 -20.67138672 90.27783203 C-15.92080224 79.33735425 -15.92080224 79.33735425 -13.46484375 78.109375 C-12.7758711 76.45180482 -12.11304783 74.7833086 -11.46484375 73.109375 C-9.97017414 70.53632308 -8.39107965 68.02900117 -6.8046875 65.51171875 C-2.72437006 58.19569768 -3.61311869 47.78572531 -5.078125 39.7421875 C-7.48422218 31.58053629 -11.71939304 24.38318511 -18.8203125 19.484375 C-21.32461457 18.14662381 -23.80246553 17.09277596 -26.46484375 16.109375 C-27.26148437 15.79226562 -28.058125 15.47515625 -28.87890625 15.1484375 C-41.41470592 10.91809024 -57.52374439 11.41614594 -69.46484375 17.109375 C-75.38618414 20.39151758 -78.09481632 24.13307922 -80.83984375 30.234375 C-81.18144531 30.94980469 -81.52304688 31.66523437 -81.875 32.40234375 C-84.31579465 37.56370793 -85.50577185 41.30577404 -85.55322266 47.01269531 C-85.73539399 58.37532852 -85.73539399 58.37532852 -90.08984375 62.859375 C-91.06824219 63.65601562 -91.06824219 63.65601562 -92.06640625 64.46875 C-93.77394723 66.08734367 -93.77394723 66.08734367 -93.30078125 68.7578125 C-93.02492188 69.53382812 -92.7490625 70.30984375 -92.46484375 71.109375 C-91.80484375 71.398125 -91.14484375 71.686875 -90.46484375 71.984375 C-89.47484375 72.54125 -89.47484375 72.54125 -88.46484375 73.109375 C-87.83984375 76.359375 -87.83984375 76.359375 -87.46484375 80.109375 C-87.11421875 81.0375 -86.76359375 81.965625 -86.40234375 82.921875 C-85.28295278 86.72780429 -85.48350617 89.91235969 -85.78515625 93.83984375 C-85.6691564 96.2102578 -85.6691564 96.2102578 -83.8984375 97.81640625 C-79.7540837 100.01830209 -75.26203804 100.45782344 -70.6796875 101.265625 C-66.04463384 102.48211539 -66.04463384 102.48211539 -64.46484375 105.109375 C-64.171875 108.02734375 -64.171875 108.02734375 -64.27734375 111.296875 C-64.31794922 112.92689453 -64.31794922 112.92689453 -64.359375 114.58984375 C-64.39417969 115.42128906 -64.42898437 116.25273437 -64.46484375 117.109375 C-67.44822513 118.41645051 -68.5321336 118.08343692 -71.63671875 116.88671875 C-72.83680859 116.28801061 -74.02930625 115.67390601 -75.21484375 115.046875 C-75.83375488 114.72904053 -76.45266602 114.41120605 -77.09033203 114.08374023 C-81.91197016 111.54679933 -86.30269422 108.63815395 -90.46484375 105.109375 C-90.65820312 105.74746094 -90.8515625 106.38554687 -91.05078125 107.04296875 C-91.31117187 107.86925781 -91.5715625 108.69554687 -91.83984375 109.546875 C-92.09507813 110.37058594 -92.3503125 111.19429688 -92.61328125 112.04296875 C-93.46484375 114.109375 -93.46484375 114.109375 -95.46484375 115.109375 C-95.46484375 112.799375 -95.46484375 110.489375 -95.46484375 108.109375 C-96.12484375 108.109375 -96.78484375 108.109375 -97.46484375 108.109375 C-97.46484375 109.429375 -97.46484375 110.749375 -97.46484375 112.109375 C-98.78484375 111.449375 -100.10484375 110.789375 -101.46484375 110.109375 C-100.63984375 110.893125 -99.81484375 111.676875 -98.96484375 112.484375 C-96.46484375 115.109375 -96.46484375 115.109375 -96.46484375 117.109375 C-95.80484375 117.109375 -95.14484375 117.109375 -94.46484375 117.109375 C-93.50578125 116.1503125 -93.50578125 116.1503125 -92.52734375 115.171875 C-90.46484375 113.109375 -90.46484375 113.109375 -87.46484375 112.109375 C-88.45484375 112.109375 -89.44484375 112.109375 -90.46484375 112.109375 C-90.46484375 111.449375 -90.46484375 110.789375 -90.46484375 110.109375 C-88.08984375 110.359375 -88.08984375 110.359375 -85.46484375 111.109375 C-84.15234375 113.171875 -84.15234375 113.171875 -83.46484375 115.109375 C-82.47484375 114.779375 -81.48484375 114.449375 -80.46484375 114.109375 C-79.47484375 114.769375 -78.48484375 115.429375 -77.46484375 116.109375 C-78.46484375 118.109375 -78.46484375 118.109375 -80.52734375 120.484375 C-82.86074528 123.10199176 -82.86074528 123.10199176 -82.46484375 127.109375 C-85.46484375 129.109375 -85.46484375 129.109375 -88.52734375 128.859375 C-91.46484375 128.109375 -91.46484375 128.109375 -93.46484375 126.109375 C-93.58984375 122.984375 -93.58984375 122.984375 -93.46484375 120.109375 C-94.30208984 119.74585938 -94.30208984 119.74585938 -95.15625 119.375 C-100.99339187 116.17494253 -106.29378705 110.89841493 -110.21484375 105.546875 C-112.29234297 102.76330268 -112.29234297 102.76330268 -115.77734375 102.734375 C-116.66421875 102.858125 -117.55109375 102.981875 -118.46484375 103.109375 C-118.79484375 101.789375 -119.12484375 100.469375 -119.46484375 99.109375 C-118.14484375 99.439375 -116.82484375 99.769375 -115.46484375 100.109375 C-115.95984375 97.634375 -115.95984375 97.634375 -116.46484375 95.109375 C-115.57796875 95.026875 -114.69109375 94.944375 -113.77734375 94.859375 C-110.05228911 94.0159664 -108.25555537 92.65384736 -105.46484375 90.109375 C-103.51203597 92.87585269 -102.50364627 94.86685927 -101.96484375 98.234375 C-102.46484375 101.109375 -102.46484375 101.109375 -104.96484375 102.984375 C-105.78984375 103.355625 -106.61484375 103.726875 -107.46484375 104.109375 C-106.80484375 104.769375 -106.14484375 105.429375 -105.46484375 106.109375 C-102.93895673 103.74644844 -101.57663538 102.44474989 -100.46484375 99.109375 C-96.58984375 100.859375 -96.58984375 100.859375 -95.46484375 103.109375 C-94.47484375 102.614375 -94.47484375 102.614375 -93.46484375 102.109375 C-93.87734375 101.69429688 -94.28984375 101.27921875 -94.71484375 100.8515625 C-108.27968412 86.37836228 -113.85406035 68.73194558 -113.6796875 49.0859375 C-112.82729383 33.3089056 -107.15767595 20.36560084 -97.46484375 8.109375 C-96.72234375 7.078125 -95.97984375 6.046875 -95.21484375 4.984375 C-69.00335738 -22.41854257 -28.98228756 -22.23047097 0 0 Z M-107.46484375 96.109375 C-108.45484375 96.604375 -108.45484375 96.604375 -109.46484375 97.109375 C-109.46484375 98.099375 -109.46484375 99.089375 -109.46484375 100.109375 C-108.14484375 100.109375 -106.82484375 100.109375 -105.46484375 100.109375 C-105.13484375 99.119375 -104.80484375 98.129375 -104.46484375 97.109375 C-105.45484375 96.779375 -106.44484375 96.449375 -107.46484375 96.109375 Z M-89.46484375 116.109375 C-90.14632605 118.00116703 -90.14632605 118.00116703 -90.46484375 120.109375 C-89.80484375 120.769375 -89.14484375 121.429375 -88.46484375 122.109375 C-86.37193218 122.02365839 -86.37193218 122.02365839 -84.46484375 121.109375 C-84.13484375 120.119375 -83.80484375 119.129375 -83.46484375 118.109375 C-86.27994368 115.8320249 -86.27994368 115.8320249 -89.46484375 116.109375 Z M-91.46484375 123.109375 C-90.80484375 124.429375 -90.14484375 125.749375 -89.46484375 127.109375 C-88.80484375 127.109375 -88.14484375 127.109375 -87.46484375 127.109375 C-87.46484375 126.119375 -87.46484375 125.129375 -87.46484375 124.109375 C-88.78484375 123.779375 -90.10484375 123.449375 -91.46484375 123.109375 Z " fill="#253188" transform="translate(133.46484375,34.890625)"/>
<path d="M0 0 C0.95189209 -0.01283524 1.90378418 -0.02567047 2.88452148 -0.03889465 C3.92294189 -0.04628159 4.9613623 -0.05366852 6.03125 -0.0612793 C7.09609619 -0.06935104 8.16094238 -0.07742279 9.25805664 -0.08573914 C11.52114218 -0.09960527 13.78424887 -0.11031604 16.04736328 -0.11816406 C19.48902014 -0.13528793 22.92969431 -0.1791414 26.37109375 -0.22338867 C28.57030544 -0.23352306 30.7695253 -0.24203682 32.96875 -0.2487793 C33.99097656 -0.26628738 35.01320313 -0.28379547 36.06640625 -0.30183411 C45.12857385 -0.27470103 52.32694271 2.27103231 59.02734375 8.48950195 C64.00631926 14.07630045 65.8663697 20.75968593 65.53125 28.17700195 C64.92351245 30.85412433 64.15942555 33.3711733 63.22265625 35.95043945 C62.33354513 38.42510494 62.33354513 38.42510494 62.53125 42.17700195 C63.129375 42.87825195 63.7275 43.57950195 64.34375 44.30200195 C68.62993422 49.93527264 70.29624515 57.16454637 69.53125 64.17700195 C67.22818718 73.65627502 62.85937366 80.02814337 54.53125 85.17700195 C50.8824463 86.8776978 48.03770728 87.4259755 44.02246094 87.41992188 C42.94494568 87.4229985 41.86743042 87.42607513 40.75726318 87.429245 C39.60502258 87.42205948 38.45278198 87.41487396 37.265625 87.4074707 C36.07648499 87.40701248 34.88734497 87.40655426 33.66217041 87.40608215 C31.15400187 87.4030652 28.6458351 87.3951956 26.13769531 87.3828125 C22.28183423 87.36450473 18.4262126 87.36230323 14.5703125 87.36254883 C12.13541457 87.35763548 9.70051828 87.35180797 7.265625 87.3449707 C6.10528748 87.34385788 4.94494995 87.34274506 3.74945068 87.34159851 C2.15209076 87.33202873 2.15209076 87.33202873 0.52246094 87.32226562 C-0.41954163 87.31845383 -1.36154419 87.31464203 -2.33209229 87.31071472 C-4.46875 87.17700195 -4.46875 87.17700195 -5.46875 86.17700195 C-5.56918271 83.53500134 -5.6049185 80.91911605 -5.59814453 78.27661133 C-5.59989685 77.4490181 -5.60164917 76.62142487 -5.60345459 75.76875305 C-5.60787393 73.01939833 -5.60493483 70.27010738 -5.6015625 67.52075195 C-5.60223552 65.61885567 -5.60320552 63.71695947 -5.60446167 61.81506348 C-5.60593875 57.8235594 -5.60378375 53.83207766 -5.59912109 49.84057617 C-5.5934238 44.71209689 -5.59670275 39.58366993 -5.60269356 34.45519257 C-5.60629889 30.52626142 -5.60516072 26.59734277 -5.60256577 22.66841125 C-5.60189642 20.77688084 -5.60272519 18.8853493 -5.60504532 16.99382019 C-5.60757138 14.35498019 -5.60373191 11.71622614 -5.59814453 9.07739258 C-5.60016876 8.28774612 -5.60219299 7.49809967 -5.60427856 6.68452454 C-5.57817838 0.06528579 -5.57817838 0.06528579 0 0 Z M19.53125 18.17700195 C19.53125 23.45700195 19.53125 28.73700195 19.53125 34.17700195 C21.903125 34.23887695 24.275 34.30075195 26.71875 34.36450195 C27.45633545 34.39181396 28.1939209 34.41912598 28.95385742 34.44726562 C33.358616 34.50258535 36.0491677 33.88528818 39.53125 31.17700195 C40.95166821 28.33616554 40.84577272 26.32222918 40.53125 23.17700195 C38.29918569 20.32919577 36.98132001 19.32702529 33.53125 18.17700195 C28.86157246 18.04109748 24.20387015 18.13413388 19.53125 18.17700195 Z M19.53125 51.17700195 C19.53125 57.11700195 19.53125 63.05700195 19.53125 69.17700195 C23.8315625 69.30075195 23.8315625 69.30075195 28.21875 69.42700195 C29.56005981 69.48162598 29.56005981 69.48162598 30.9284668 69.53735352 C34.97817845 69.5936689 37.03228852 69.48941768 40.55078125 67.28637695 C43.10269525 64.56836204 43.48110622 63.61993871 43.90625 59.86450195 C43.83114905 56.13210729 43.83114905 56.13210729 41.62109375 53.46606445 C37.29183662 50.2588019 33.9509672 50.61088964 28.71875 50.86450195 C27.83509766 50.88706055 26.95144531 50.90961914 26.04101562 50.93286133 C23.8703609 50.99152767 21.7005831 51.08120216 19.53125 51.17700195 Z " fill="#253188" transform="translate(283.46875,52.822998046875)"/>
<path d="M0 0 C0.98033203 -0.00128906 1.96066406 -0.00257812 2.97070312 -0.00390625 C4.51854492 0.00189453 4.51854492 0.00189453 6.09765625 0.0078125 C7.12568359 0.00394531 8.15371094 0.00007813 9.21289062 -0.00390625 C10.68532227 -0.00197266 10.68532227 -0.00197266 12.1875 0 C13.54476196 0.00169189 13.54476196 0.00169189 14.92944336 0.00341797 C17.16015625 0.1328125 17.16015625 0.1328125 19.16015625 1.1328125 C19.16015625 10.7028125 19.16015625 20.2728125 19.16015625 30.1328125 C28.73015625 30.1328125 38.30015625 30.1328125 48.16015625 30.1328125 C48.12055999 20.63388286 48.12055999 20.63388286 48.07006836 11.13500977 C48.0675708 9.95994873 48.06507324 8.7848877 48.0625 7.57421875 C48.05726318 6.36451416 48.05202637 5.15480957 48.04663086 3.90844727 C48.16015625 1.1328125 48.16015625 1.1328125 49.16015625 0.1328125 C56.75015625 0.1328125 64.34015625 0.1328125 72.16015625 0.1328125 C72.16015625 28.8428125 72.16015625 57.5528125 72.16015625 87.1328125 C64.57015625 87.1328125 56.98015625 87.1328125 49.16015625 87.1328125 C48.16015625 86.1328125 48.16015625 86.1328125 48.04663086 82.89819336 C48.04678994 81.46467124 48.05248218 80.03114338 48.0625 78.59765625 C48.06391495 77.84440567 48.0653299 77.09115509 48.06678772 76.31507874 C48.07240249 73.9001169 48.08495742 71.48524649 48.09765625 69.0703125 C48.10266935 67.43685029 48.10723259 65.80338664 48.11132812 64.16992188 C48.1215275 60.1574882 48.1410998 56.14525314 48.16015625 52.1328125 C38.59015625 52.1328125 29.02015625 52.1328125 19.16015625 52.1328125 C19.17175781 54.57558594 19.18335938 57.01835938 19.1953125 59.53515625 C19.20310309 61.89151886 19.20917984 64.24788006 19.21508789 66.60424805 C19.22012799 68.24650714 19.22696003 69.88876173 19.2355957 71.53100586 C19.24767551 73.88656729 19.25338764 76.24206959 19.2578125 78.59765625 C19.26297379 79.33620346 19.26813507 80.07475067 19.27345276 80.8356781 C19.27364875 82.60179338 19.22210344 84.36778396 19.16015625 86.1328125 C17.47498671 87.81798204 15.37247837 87.26289269 13.06640625 87.265625 C12.03644531 87.26691406 11.00648438 87.26820313 9.9453125 87.26953125 C8.31916016 87.26373047 8.31916016 87.26373047 6.66015625 87.2578125 C5.57605469 87.26167969 4.49195313 87.26554687 3.375 87.26953125 C2.34503906 87.26824219 1.31507813 87.26695312 0.25390625 87.265625 C-0.69806641 87.26449707 -1.65003906 87.26336914 -2.63085938 87.26220703 C-4.83984375 87.1328125 -4.83984375 87.1328125 -5.83984375 86.1328125 C-5.94027646 83.49081189 -5.97601225 80.8749266 -5.96923828 78.23242188 C-5.9709906 77.40482864 -5.97274292 76.57723541 -5.97454834 75.7245636 C-5.97896768 72.97520888 -5.97602858 70.22591793 -5.97265625 67.4765625 C-5.97332927 65.57466621 -5.97429927 63.67277001 -5.97555542 61.77087402 C-5.9770325 57.77936995 -5.9748775 53.78788821 -5.97021484 49.79638672 C-5.96451755 44.66790743 -5.9677965 39.53948048 -5.97378731 34.41100311 C-5.97739264 30.48207196 -5.97625447 26.55315332 -5.97365952 22.6242218 C-5.97299017 20.73269138 -5.97381894 18.84115985 -5.97613907 16.94963074 C-5.97866513 14.31079073 -5.97482566 11.67203669 -5.96923828 9.03320312 C-5.97126251 8.24355667 -5.97328674 7.45391022 -5.97537231 6.64033508 C-5.94921823 0.00742525 -5.94921823 0.00742525 0 0 Z " fill="#253188" transform="translate(413.83984375,52.8671875)"/>
<path d="M0 0 C7.363125 -0.0825 14.72625 -0.165 22.3125 -0.25 C24.61387939 -0.28641602 26.91525879 -0.32283203 29.28637695 -0.36035156 C31.14533562 -0.37205257 33.00430467 -0.38224103 34.86328125 -0.390625 C35.80022827 -0.41108887 36.73717529 -0.43155273 37.70251465 -0.45263672 C48.08494217 -0.45801831 56.62014144 2.64191136 64.12109375 9.84765625 C69.46215686 15.96600505 71.3957085 22.76474332 71.19921875 30.8359375 C70.25220165 41.12314285 64.02464385 46.97535615 57 54 C58.95562263 57.50633158 60.91285942 61.01175658 62.87158203 64.51635742 C63.53738882 65.70816778 64.20275769 66.9002229 64.86767578 68.0925293 C65.82468742 69.80842684 66.78341652 71.52336614 67.7421875 73.23828125 C68.3182373 74.26993408 68.89428711 75.30158691 69.48779297 76.36450195 C70.58938152 78.2843677 71.77219623 80.15829434 73 82 C73.125 84.6875 73.125 84.6875 73 87 C50.66475918 89.03903182 50.66475918 89.03903182 45.11230469 85.94970703 C42.34590437 83.15606645 40.98267607 79.5961869 39.70556641 75.93457031 C38.4687605 72.54341114 36.76966582 69.42257254 35.0625 66.25 C34.49660156 65.07953125 33.93070313 63.9090625 33.34765625 62.703125 C30.60343104 58.92641951 30.60343104 58.92641951 22 59 C22 68.24 22 77.48 22 87 C14.74 87 7.48 87 0 87 C0 58.29 0 29.58 0 0 Z M22 19 C22 25.6 22 32.2 22 39 C24.536875 39.061875 27.07375 39.12375 29.6875 39.1875 C30.87218872 39.22846802 30.87218872 39.22846802 32.08081055 39.27026367 C36.61453298 39.32357461 39.40816874 38.78911139 43 36 C45.32849047 32.78446554 45.54457007 29.88978623 45 26 C42.93227415 22.57234676 40.87871765 20.29290588 37 19 C34.42502932 18.92964561 31.88550071 18.9065066 29.3125 18.9375 C26.899375 18.958125 24.48625 18.97875 22 19 Z " fill="#253188" transform="translate(195,53)"/>
<path d="M0 0 C1.02996094 -0.00128906 2.05992187 -0.00257812 3.12109375 -0.00390625 C4.74724609 0.00189453 4.74724609 0.00189453 6.40625 0.0078125 C7.49035156 0.00394531 8.57445312 0.00007813 9.69140625 -0.00390625 C10.72136719 -0.00261719 11.75132812 -0.00132813 12.8125 0 C14.24045898 0.00169189 14.24045898 0.00169189 15.69726562 0.00341797 C17.90625 0.1328125 17.90625 0.1328125 18.90625 1.1328125 C19.00011381 3.0046219 19.02368804 4.8799931 19.01977539 6.75415039 C19.01969986 7.95531998 19.01962433 9.15648956 19.01954651 10.39405823 C19.01438522 11.7013237 19.00922394 13.00858917 19.00390625 14.35546875 C19.00204198 15.69925382 19.00061812 17.04303957 18.99961853 18.38682556 C18.99579402 21.92963527 18.98596432 25.4724042 18.97491455 29.01519775 C18.96469899 32.62796477 18.9601206 36.24073834 18.95507812 39.85351562 C18.94434198 46.9466313 18.92726636 54.03971924 18.90625 61.1328125 C14.92709841 61.16168234 10.94797347 61.17956656 6.96875 61.1953125 C5.26428711 61.20788086 5.26428711 61.20788086 3.52539062 61.22070312 C2.44580078 61.22392578 1.36621094 61.22714844 0.25390625 61.23046875 C-1.24644165 61.23832397 -1.24644165 61.23832397 -2.77709961 61.24633789 C-5.09375 61.1328125 -5.09375 61.1328125 -6.09375 60.1328125 C-6.19280152 58.29708619 -6.22174207 56.45753675 -6.22314453 54.61914062 C-6.22629669 53.44121948 -6.22944885 52.26329834 -6.23269653 51.04968262 C-6.2306723 49.76742798 -6.22864807 48.48517334 -6.2265625 47.1640625 C-6.22751923 45.85828247 -6.22847595 44.55250244 -6.22946167 43.20715332 C-6.23093833 40.43968528 -6.22878511 37.67224946 -6.22412109 34.90478516 C-6.21842381 31.35018601 -6.22170298 27.79566236 -6.22769356 24.24106598 C-6.23216747 20.86122536 -6.22903886 17.48140527 -6.2265625 14.1015625 C-6.22858673 12.81930786 -6.23061096 11.53705322 -6.23269653 10.21594238 C-6.22954437 9.03802124 -6.22639221 7.8601001 -6.22314453 6.64648438 C-6.22234894 5.60359253 -6.22155334 4.56070068 -6.22073364 3.48620605 C-5.98719381 -0.84199814 -3.80991933 0.00451412 0 0 Z " fill="#09A336" transform="translate(370.09375,78.8671875)"/>
<path d="M0 0 C1.625 1.4375 1.625 1.4375 3 3 C6.50711619 4.16903873 9.36782386 4.16839619 13.0625 4.1875 C14.31160156 4.20167969 15.56070313 4.21585938 16.84765625 4.23046875 C20.09765087 4.33812605 20.09765087 4.33812605 22 2 C28.57692308 2.57692308 28.57692308 2.57692308 30 4 C30.04080783 5.99958364 30.04254356 8.00045254 30 10 C30.66 10.20625 31.32 10.4125 32 10.625 C34.76170653 11.89078216 36.54177521 13.16959195 38.875 15.0625 C42.56661916 17.95857175 45.32853196 18.45041552 50 19 C52.0625 20.75 52.0625 20.75 53 23 C52.09021715 26.82108796 51.32708333 27.78194445 48 30 C47.12705904 32.79399499 46.42443062 35.46237958 45.8125 38.3125 C45.63525391 39.07240234 45.45800781 39.83230469 45.27539062 40.61523438 C44.41398205 44.44334737 43.65638453 48.05224005 44 52 C44.33 52.33 44.66 52.66 45 53 C45.1875 55.9375 45.1875 55.9375 45 59 C43 61 43 61 40.0625 61.3125 C37 61 37 61 35.125 59.6875 C34 58 34 58 34 55 C28.11993237 53.0123715 23.25920741 51.87226107 17 52 C13.29534424 49.53022949 13.35134453 48.13352443 12 44 C9.44392614 39.41669515 7.84213053 37.78394283 3 36 C2.73703125 35.39929688 2.4740625 34.79859375 2.203125 34.1796875 C-0.39651836 29.46994402 -6.24896946 27.14063954 -11 25 C-13.81376638 24.60758884 -16.14531226 24.79238635 -19 25 C-21 23.5 -21 23.5 -22 22 C-20.25 16.25 -20.25 16.25 -18 14 C-17.030625 13.690625 -16.06125 13.38125 -15.0625 13.0625 C-11.37847233 11.82880688 -11.37847233 11.82880688 -9 9 C-8.61174772 7.63423311 -8.26091918 6.25755527 -7.9375 4.875 C-7.628125 3.59625 -7.31875 2.3175 -7 1 C-4.45132831 -0.27433584 -2.82594567 -0.27570202 0 0 Z M2 8 C0.94288573 11.19957435 1.04815222 12.96645088 2.21484375 16.109375 C2.48876953 16.86347656 2.76269531 17.61757812 3.04492188 18.39453125 C3.33947266 19.17183594 3.63402344 19.94914062 3.9375 20.75 C4.22818359 21.54277344 4.51886719 22.33554688 4.81835938 23.15234375 C5.53594814 25.10512629 6.26670906 27.05305941 7 29 C10.63289014 25.55161741 13.53888259 22.04326119 16.3125 17.875 C17.00988281 16.84117188 17.70726563 15.80734375 18.42578125 14.7421875 C20.24893376 12.09336062 20.24893376 12.09336062 20 9 C16.81175432 7.40587716 13.37103338 7.89825265 9.875 7.9375 C8.74384766 7.94426758 8.74384766 7.94426758 7.58984375 7.95117188 C5.72652873 7.96296501 3.86325445 7.98090058 2 8 Z M-6 10 C-6.845625 10.86625 -7.69125 11.7325 -8.5625 12.625 C-9.03816406 13.11226562 -9.51382813 13.59953125 -10.00390625 14.1015625 C-11.22677007 16.08027635 -11.22677007 16.08027635 -11.0234375 18.96484375 C-9.63994497 23.06779679 -7.81771422 23.89691391 -4.0625 25.9375 C-2.98097656 26.54464844 -1.89945313 27.15179688 -0.78515625 27.77734375 C0.13394531 28.18082031 1.05304688 28.58429688 2 29 C2.66 28.67 3.32 28.34 4 28 C3.1028206 25.17986609 2.18375745 22.37050618 1.25 19.5625 C0.99734375 18.76005859 0.7446875 17.95761719 0.484375 17.13085938 C0.09765625 15.98520508 0.09765625 15.98520508 -0.296875 14.81640625 C-0.52729492 14.10943604 -0.75771484 13.40246582 -0.99511719 12.67407227 C-1.88437603 10.78869405 -1.88437603 10.78869405 -4.10644531 10.26147461 C-5.04375488 10.13204468 -5.04375488 10.13204468 -6 10 Z M23 13 C21.58230499 14.57880463 21.58230499 14.57880463 20.1796875 16.6484375 C19.64472656 17.40640625 19.10976562 18.164375 18.55859375 18.9453125 C18.00300781 19.74710938 17.44742188 20.54890625 16.875 21.375 C16.31167969 22.1690625 15.74835938 22.963125 15.16796875 23.78125 C12.15185974 27.55697311 12.15185974 27.55697311 11 32 C15.95 32.33 20.9 32.66 26 33 C29.03442964 28.44835553 27.8142072 24.24379317 27 19 C26.06264939 15.50560365 26.06264939 15.50560365 25 13 C24.34 13 23.68 13 23 13 Z M29 13 C29.47630791 18.52767863 30.04352309 23.78272824 32 29 C32.99 29.33 33.98 29.66 35 30 C36.8948204 29.02770152 36.8948204 29.02770152 38.6875 27.5625 C39.31011719 27.08941406 39.93273437 26.61632812 40.57421875 26.12890625 C41.04472656 25.75636719 41.51523438 25.38382813 42 25 C41.71332991 21.81796202 40.99952206 20.99958558 38.53125 18.859375 C37.5309375 18.16328125 36.530625 17.4671875 35.5 16.75 C34.4996875 16.04359375 33.499375 15.3371875 32.46875 14.609375 C30.35154748 12.90898233 30.35154748 12.90898233 29 13 Z M37 32 C35.11618195 36.20236335 34.52004433 38.31535561 35.78125 42.7421875 C36.76313835 45.21794884 37.81703988 47.6145267 39 50 C39.33 50 39.66 50 40 50 C40.67363372 47.27238489 41.33909444 44.543201 42 41.8125 C42.19078125 41.04357422 42.3815625 40.27464844 42.578125 39.48242188 C43.51623421 35.57921747 44.25957208 32.04770205 44 28 C41.19239659 28 39.01082084 30.3585136 37 32 Z M11 35 C12.61382757 38.40212299 14.58603766 41.10324519 17 44 C21.24846075 43.52794881 23.26819288 41.11122478 26 38 C26 37.34 26 36.68 26 36 C20.94997778 34.96409801 16.12583611 34.89748328 11 35 Z M29 39 C27.09198426 40.20129367 27.09198426 40.20129367 25.3125 41.9375 C24.68988281 42.50339844 24.06726563 43.06929687 23.42578125 43.65234375 C22.72001953 44.31943359 22.72001953 44.31943359 22 45 C22.66577681 48.14206961 22.66577681 48.14206961 25.1796875 49.16796875 C26.51386719 49.67263672 26.51386719 49.67263672 27.875 50.1875 C28.75929688 50.53167969 29.64359375 50.87585938 30.5546875 51.23046875 C33.04968431 52.15009159 33.04968431 52.15009159 36 52 C35.34197179 47.6570138 33.96361202 43.92722404 32 40 C31.01 39.67 30.02 39.34 29 39 Z " fill="#EB7A00" transform="translate(73,51)"/>
<path d="M0 0 C13.2 0 26.4 0 40 0 C37.50490677 12.47546614 37.50490677 12.47546614 31 18 C25.80443522 21.0788532 20.91955945 21.91697134 15 21 C8.84434684 18.9444318 3.87138243 15.38631106 0.6875 9.625 C0 7 0 7 0 0 Z " fill="#253188" transform="translate(69,176)"/>
<path d="M0 0 C1.00023193 0.00523682 2.00046387 0.01047363 3.03100586 0.01586914 C4.1105957 0.0190918 5.19018555 0.02231445 6.30249023 0.02563477 C8.00695312 0.03820313 8.00695312 0.03820313 9.74584961 0.05102539 C11.45611328 0.05779297 11.45611328 0.05779297 13.20092773 0.06469727 C16.02842379 0.07652779 18.85589306 0.09446389 21.68334961 0.11352539 C21.68334961 7.37352539 21.68334961 14.63352539 21.68334961 22.11352539 C17.70413866 22.14035153 13.7251062 22.16027932 9.74584961 22.17602539 C8.04138672 22.18859375 8.04138672 22.18859375 6.30249023 22.20141602 C5.22290039 22.20463867 4.14331055 22.20786133 3.03100586 22.21118164 C1.53065796 22.21903687 1.53065796 22.21903687 0 22.22705078 C-2.31665039 22.11352539 -2.31665039 22.11352539 -3.31665039 21.11352539 C-3.41545836 19.63699875 -3.44744285 18.15585303 -3.44946289 16.67602539 C-3.45075195 15.78141602 -3.45204102 14.88680664 -3.45336914 13.96508789 C-3.44756836 12.55356445 -3.44756836 12.55356445 -3.44165039 11.11352539 C-3.44551758 10.17250977 -3.44938477 9.23149414 -3.45336914 8.26196289 C-3.45208008 7.36735352 -3.45079102 6.47274414 -3.44946289 5.55102539 C-3.447771 4.3115918 -3.447771 4.3115918 -3.44604492 3.04711914 C-3.2544468 0.18399246 -2.871006 0.14069109 0 0 Z " fill="#EE7C00" transform="translate(367.316650390625,52.886474609375)"/>
<path d="M0 0 C3.11130213 2.43070479 3.93506938 3.58877276 4.5625 7.5625 C4 11 4 11 1.5 12.9375 C0.675 13.288125 -0.15 13.63875 -1 14 C-0.34 14.66 0.32 15.32 1 16 C3.52588702 13.63707344 4.88820837 12.33537489 6 9 C9.875 10.75 9.875 10.75 11 13 C12.32 13 13.64 13 15 13 C14.91253716 14.43861294 14.80434652 15.87597508 14.6875 17.3125 C14.62949219 18.11300781 14.57148437 18.91351563 14.51171875 19.73828125 C13.91793306 22.36272334 13.04219706 23.30820672 11 25 C11 22.69 11 20.38 11 18 C10.34 18 9.68 18 9 18 C9 19.32 9 20.64 9 22 C7.68 21.34 6.36 20.68 5 20 C5.825 20.78375 6.65 21.5675 7.5 22.375 C10 25 10 25 10 27 C10.66 27 11.32 27 12 27 C12.639375 26.360625 13.27875 25.72125 13.9375 25.0625 C16 23 16 23 19 22 C18.01 22 17.02 22 16 22 C16 21.34 16 20.68 16 20 C18.375 20.25 18.375 20.25 21 21 C22.3125 23.0625 22.3125 23.0625 23 25 C23.99 24.67 24.98 24.34 26 24 C26.99 24.66 27.98 25.32 29 26 C28 28 28 28 25.9375 30.375 C23.60409847 32.99261676 23.60409847 32.99261676 24 37 C21 39 21 39 17.9375 38.75 C15 38 15 38 13 36 C12.875 32.875 12.875 32.875 13 30 C12.44183594 29.75765625 11.88367188 29.5153125 11.30859375 29.265625 C5.47145188 26.06556753 0.1710567 20.78903993 -3.75 15.4375 C-5.82749922 12.65392768 -5.82749922 12.65392768 -9.3125 12.625 C-10.6428125 12.810625 -10.6428125 12.810625 -12 13 C-12.33 11.68 -12.66 10.36 -13 9 C-11.68 9.33 -10.36 9.66 -9 10 C-9.33 8.35 -9.66 6.7 -10 5 C-9.0925 4.9175 -8.185 4.835 -7.25 4.75 C-3.59922161 3.90751268 -2.36615417 2.82118382 0 0 Z M-1 6 C-1.99 6.495 -1.99 6.495 -3 7 C-3 7.99 -3 8.98 -3 10 C-1.68 10 -0.36 10 1 10 C1.33 9.01 1.66 8.02 2 7 C1.01 6.67 0.02 6.34 -1 6 Z M17 26 C16.3185177 27.89179203 16.3185177 27.89179203 16 30 C16.66 30.66 17.32 31.32 18 32 C20.09291157 31.91428339 20.09291157 31.91428339 22 31 C22.33 30.01 22.66 29.02 23 28 C20.18490007 25.7226499 20.18490007 25.7226499 17 26 Z M15 33 C15.66 34.32 16.32 35.64 17 37 C17.66 37 18.32 37 19 37 C19 36.01 19 35.02 19 34 C17.68 33.67 16.36 33.34 15 33 Z " fill="#171716" transform="translate(27,125)"/>
<path d="M0 0 C1.98 0.66 3.96 1.32 6 2 C5.01 3.485 5.01 3.485 4 5 C4 5.99 4 6.98 4 8 C3.01 8.33 2.02 8.66 1 9 C2.65 9.33 4.3 9.66 6 10 C5.79375 9.21625 5.5875 8.4325 5.375 7.625 C5.25125 6.75875 5.1275 5.8925 5 5 C5.66 4.34 6.32 3.68 7 3 C9.625 3.375 9.625 3.375 12 4 C11.814375 4.804375 11.62875 5.60875 11.4375 6.4375 C11.2209375 7.7059375 11.2209375 7.7059375 11 9 C11.33 9.33 11.66 9.66 12 10 C12.66 8.68 13.32 7.36 14 6 C16.16874252 6.50603992 17.99967627 6.99983813 20 8 C19 11 19 11 18 12 C17.67 12.66 17.34 13.32 17 14 C16.01 14 15.02 14 14 14 C14.66 14.66 15.32 15.32 16 16 C17.65 14.02 19.3 12.04 21 10 C25.875 11.75 25.875 11.75 27 14 C27.99 14.33 28.98 14.66 30 15 C30 15.99 30 16.98 30 18 C30.99 17.67 31.98 17.34 33 17 C33 21 33 21 31.57421875 22.51953125 C30.64029297 23.15955078 30.64029297 23.15955078 29.6875 23.8125 C29.07261719 24.25207031 28.45773438 24.69164063 27.82421875 25.14453125 C26 26 26 26 23 25 C23.99 21.535 23.99 21.535 25 18 C22.48916886 19.25541557 22.12874554 20.50063488 21 23 C20.34 22.67 19.68 22.34 19 22 C19 21.01 19 20.02 19 19 C18.01 19.33 17.02 19.66 16 20 C16 19.34 16 18.68 16 18 C14.35 17.67 12.7 17.34 11 17 C10.67 16.01 10.34 15.02 10 14 C9.43796875 14.20496094 8.8759375 14.40992188 8.296875 14.62109375 C5.33198876 15.11019913 3.92890711 14.36255786 1.25 13.0625 C0.45078125 12.68222656 -0.3484375 12.30195313 -1.171875 11.91015625 C-1.77515625 11.60980469 -2.3784375 11.30945312 -3 11 C-2.53199289 6.94393835 -2.12046792 3.53411321 0 0 Z M8 6 C8.66 6.66 9.32 7.32 10 8 C10 7.34 10 6.68 10 6 C9.34 6 8.68 6 8 6 Z M6 10 C6.33 10.66 6.66 11.32 7 12 C7.33 11.34 7.66 10.68 8 10 C7.34 10 6.68 10 6 10 Z M22 13 C21.67 13.66 21.34 14.32 21 15 C21.66 15 22.32 15 23 15 C22.67 14.34 22.34 13.68 22 13 Z " fill="#040405" transform="translate(111,5)"/>
<path d="M0 0 C1.32 0.66 2.64 1.32 4 2 C4.33 1.67 4.66 1.34 5 1 C6.99958364 0.95919217 9.00045254 0.95745644 11 1 C11.33 2.32 11.66 3.64 12 5 C12.66 5 13.32 5 14 5 C13.88601335 6.62580966 13.75844341 8.25067157 13.625 9.875 C13.55539063 10.77992187 13.48578125 11.68484375 13.4140625 12.6171875 C13 15 13 15 11 17 C7.875 16.625 7.875 16.625 5 16 C5.66 17.32 6.32 18.64 7 20 C9.31 19.34 11.62 18.68 14 18 C14 17.34 14 16.68 14 16 C14.66 16 15.32 16 16 16 C16.92844389 20.33273814 16.92844389 23.66726186 16 28 C12.25 29.125 12.25 29.125 10 28 C10 28.99 10 29.98 10 31 C9.34 31 8.68 31 8 31 C7.34 30.01 6.68 29.02 6 28 C6 28.99 6 29.98 6 31 C3.32423308 29.99382318 2.2214892 29.45785454 0.953125 26.8359375 C0.72109375 26.02382812 0.4890625 25.21171875 0.25 24.375 C-0.11351562 23.14910156 -0.11351562 23.14910156 -0.484375 21.8984375 C-0.65453125 21.27195312 -0.8246875 20.64546875 -1 20 C0.32 19.67 1.64 19.34 3 19 C2.34665176 14.23406353 2.34665176 14.23406353 1.5 9.5 C0.86990062 6.34950311 0.43679586 3.18236983 0 0 Z M6 4 C6 5.32 6 6.64 6 8 C7.32 7.67 8.64 7.34 10 7 C10 6.01 10 5.02 10 4 C8.68 4 7.36 4 6 4 Z M7 10 C7 11.32 7 12.64 7 14 C8.32 13.67 9.64 13.34 11 13 C11 12.01 11 11.02 11 10 C9.68 10 8.36 10 7 10 Z M10 22 C10.33 22.66 10.66 23.32 11 24 C11.33 23.34 11.66 22.68 12 22 C11.34 22 10.68 22 10 22 Z M14 22 C15 24 15 24 15 24 Z " fill="#161616" transform="translate(4,91)"/>
<path d="M0 0 C0.83648071 0.00718552 1.67296143 0.01437103 2.53479004 0.02177429 C3.8218988 0.02246162 3.8218988 0.02246162 5.13500977 0.02316284 C6.95073833 0.0261863 8.76646428 0.03407541 10.58215332 0.0464325 C13.36723991 0.06466905 16.15199378 0.06694233 18.93713379 0.06669617 C20.69885542 0.07161209 22.4605748 0.07744073 24.22229004 0.08427429 C25.05877075 0.08538712 25.89525146 0.08649994 26.75708008 0.08764648 C32.64640947 0.13617776 32.64640947 0.13617776 34.87854004 1.25224304 C34.92126104 2.91836209 34.91917836 4.58607189 34.87854004 6.25224304 C33.87854004 7.25224304 33.87854004 7.25224304 30.00134277 7.36576843 C28.27159836 7.36560925 26.54184923 7.35991154 24.81213379 7.34989929 C23.90351089 7.34848434 22.994888 7.3470694 22.05873108 7.34561157 C19.14446783 7.33999497 16.23028023 7.32743969 13.31604004 7.31474304 C11.34533802 7.30973018 9.3746348 7.3051669 7.40393066 7.30107117 C2.56210445 7.29002015 -2.27966491 7.27274442 -7.12145996 7.25224304 C-7.74645996 4.87724304 -7.74645996 4.87724304 -8.12145996 2.25224304 C-5.48605443 -0.38316249 -3.58610879 0.01425095 0 0 Z " fill="#09A336" transform="translate(75.1214599609375,166.7477569580078)"/>
<path d="M0 0 C0.83648071 0.00718552 1.67296143 0.01437103 2.53479004 0.02177429 C3.8218988 0.02246162 3.8218988 0.02246162 5.13500977 0.02316284 C6.95073833 0.0261863 8.76646428 0.03407541 10.58215332 0.0464325 C13.36723991 0.06466905 16.15199378 0.06694233 18.93713379 0.06669617 C20.69885542 0.07161209 22.4605748 0.07744073 24.22229004 0.08427429 C25.05877075 0.08538712 25.89525146 0.08649994 26.75708008 0.08764648 C32.64640947 0.13617776 32.64640947 0.13617776 34.87854004 1.25224304 C34.92126104 2.91836209 34.91917836 4.58607189 34.87854004 6.25224304 C33.87854004 7.25224304 33.87854004 7.25224304 30.00134277 7.36576843 C28.27159836 7.36560925 26.54184923 7.35991154 24.81213379 7.34989929 C23.90351089 7.34848434 22.994888 7.3470694 22.05873108 7.34561157 C19.14446783 7.33999497 16.23028023 7.32743969 13.31604004 7.31474304 C11.34533802 7.30973018 9.3746348 7.3051669 7.40393066 7.30107117 C2.56210445 7.29002015 -2.27966491 7.27274442 -7.12145996 7.25224304 C-7.74645996 4.87724304 -7.74645996 4.87724304 -8.12145996 2.25224304 C-5.48605443 -0.38316249 -3.58610879 0.01425095 0 0 Z " fill="#09A336" transform="translate(75.1214599609375,157.7477569580078)"/>
<path d="M0 0 C0.12375 0.763125 0.2475 1.52625 0.375 2.3125 C1.29360697 6.26250999 2.63740071 7.75826714 6 10 C4.6875 11.5 4.6875 11.5 3 13 C2.01 13 1.02 13 0 13 C-0.99 14.485 -0.99 14.485 -2 16 C-4.5 16.3125 -4.5 16.3125 -7 16 C-7.66 15.34 -8.32 14.68 -9 14 C-8.625 11.375 -8.625 11.375 -8 9 C-9.32 10.32 -10.64 11.64 -12 13 C-10.18777466 15.0624994 -10.18777466 15.0624994 -8 17 C-7.01 17 -6.02 17 -5 17 C-5.99 19.475 -5.99 19.475 -7 22 C-7.66 22 -8.32 22 -9 22 C-9.33 21.34 -9.66 20.68 -10 20 C-10.33 20.99 -10.66 21.98 -11 23 C-10.34 23 -9.68 23 -9 23 C-9.66 24.32 -10.32 25.64 -11 27 C-12.98 27 -14.96 27 -17 27 C-17 26.34 -17 25.68 -17 25 C-18.32 24.67 -19.64 24.34 -21 24 C-21.67578125 22.26171875 -21.67578125 22.26171875 -22 20 C-18.66963407 13.71198058 -7.56631569 0 0 0 Z M-5 5 C-5.33 5.66 -5.66 6.32 -6 7 C-5.01 6.67 -4.02 6.34 -3 6 C-3.66 5.67 -4.32 5.34 -5 5 Z M-6 10 C-5.67 11.32 -5.34 12.64 -5 14 C-4.01 13.67 -3.02 13.34 -2 13 C-2.33 12.01 -2.66 11.02 -3 10 C-3.99 10 -4.98 10 -6 10 Z M-18 18 C-18 19.32 -18 20.64 -18 22 C-17.34 21.67 -16.68 21.34 -16 21 C-16 20.01 -16 19.02 -16 18 C-16.66 18 -17.32 18 -18 18 Z M-15 22 C-15.33 22.66 -15.66 23.32 -16 24 C-15.01 23.67 -14.02 23.34 -13 23 C-13.66 22.67 -14.32 22.34 -15 22 Z " fill="#161616" transform="translate(44,16)"/>
<path d="M0 0 C0 0.66 0 1.32 0 2 C-0.66 2 -1.32 2 -2 2 C-1.67 4.97 -1.34 7.94 -1 11 C-0.34 11 0.32 11 1 11 C1 11.66 1 12.32 1 13 C-3.29299643 14.26264601 -5.87831311 13.62950412 -10 12 C-10.33 13.65 -10.66 15.3 -11 17 C-13.97 17.33 -16.94 17.66 -20 18 C-20.70074844 14.846632 -21 12.27275026 -21 9 C-21.99 9 -22.98 9 -24 9 C-24 8.34 -24 7.68 -24 7 C-6.71374046 0 -6.71374046 0 0 0 Z M-14 5 C-13.67 6.65 -13.34 8.3 -13 10 C-12.34 10 -11.68 10 -11 10 C-10.67 8.35 -10.34 6.7 -10 5 C-11.32 5 -12.64 5 -14 5 Z M-6 5 C-5 7 -5 7 -5 7 Z M-8 8 C-8 8.66 -8 9.32 -8 10 C-7.34 9.67 -6.68 9.34 -6 9 C-6.66 8.67 -7.32 8.34 -8 8 Z M-18 12 C-17.67 13.32 -17.34 14.64 -17 16 C-16.67 15.34 -16.34 14.68 -16 14 C-15.34 14 -14.68 14 -14 14 C-14.33 13.01 -14.66 12.02 -15 11 C-16.2236068 10.9254644 -16.2236068 10.9254644 -18 12 Z " fill="#161616" transform="translate(77,3)"/>
<path d="M0 0 C0.53625 0.268125 1.0725 0.53625 1.625 0.8125 C2.375 3.0625 2.375 3.0625 2.625 5.8125 C0.6875 8.125 0.6875 8.125 -1.375 9.8125 C1.265 9.1525 3.905 8.4925 6.625 7.8125 C6.955 8.8025 7.285 9.7925 7.625 10.8125 C5.6875 13.5 5.6875 13.5 3.625 15.8125 C5.605 15.1525 7.585 14.4925 9.625 13.8125 C9.74875 14.410625 9.8725 15.00875 10 15.625 C10.57975985 18.07481348 10.57975985 18.07481348 12.625 20.8125 C11.35808493 21.48658308 10.08629251 22.15150497 8.8125 22.8125 C8.10480469 23.18375 7.39710938 23.555 6.66796875 23.9375 C4.625 24.8125 4.625 24.8125 1.625 24.8125 C1.955 23.4925 2.285 22.1725 2.625 20.8125 C1.635 20.8125 0.645 20.8125 -0.375 20.8125 C-2.375 16.0625 -2.375 16.0625 -2.375 13.8125 C-3.035 13.8125 -3.695 13.8125 -4.375 13.8125 C-8.375 8.51838235 -8.375 8.51838235 -8.375 4.8125 C-3.30182927 -0.26067073 -3.30182927 -0.26067073 0 0 Z M-1.375 2.8125 C-0.375 4.8125 -0.375 4.8125 -0.375 4.8125 Z " fill="#040404" transform="translate(154.375,34.1875)"/>
<path d="M0 0 C0.33 0.66 0.66 1.32 1 2 C3.11846285 2.68729254 3.11846285 2.68729254 5.5625 3.125 C6.80193359 3.37636719 6.80193359 3.37636719 8.06640625 3.6328125 C8.70449219 3.75398438 9.34257812 3.87515625 10 4 C9.54857225 5.77260631 9.08859477 7.5430368 8.625 9.3125 C8.36976562 10.29863281 8.11453125 11.28476562 7.8515625 12.30078125 C6.73613534 15.83637835 4.99033048 18.78494039 2 21 C-1.34192692 20.75546876 -2.60543557 20.39456443 -5 18 C-5.99 18 -6.98 18 -8 18 C-7.01 14.37 -6.02 10.74 -5 7 C-5.66 7 -6.32 7 -7 7 C-7 7.66 -7 8.32 -7 9 C-7.66 9 -8.32 9 -9 9 C-8.875 6.75 -8.875 6.75 -8 4 C-2.91891892 0 -2.91891892 0 0 0 Z M-1 5 C-1.33 5.66 -1.66 6.32 -2 7 C1.80504787 8.79682816 2.70600835 9.07349791 7 8 C4.36 7.01 1.72 6.02 -1 5 Z M-3 10 C-3.33 11.65 -3.66 13.3 -4 15 C-3.01 13.68 -2.02 12.36 -1 11 C-1.66 10.67 -2.32 10.34 -3 10 Z M3 12 C3.66 12.66 4.32 13.32 5 14 C5 13.34 5 12.68 5 12 C4.34 12 3.68 12 3 12 Z M-2 15 C-1.67 15.99 -1.34 16.98 -1 18 C0.32 18 1.64 18 3 18 C2.67 17.01 2.34 16.02 2 15 C0.68 15 -0.64 15 -2 15 Z " fill="#161716" transform="translate(14,50)"/>
<path d="M0 0 C0.33 1.32 0.66 2.64 1 4 C2.11375 4.28875 3.2275 4.5775 4.375 4.875 C8 6 8 6 10 8 C4 14 4 14 1.625 14.1875 C-1 14 -1 14 -4 12 C-4.66 12 -5.32 12 -6 12 C-5.67 10.35 -5.34 8.7 -5 7 C-6.65 7.33 -8.3 7.66 -10 8 C-8.60344703 4.50126729 -7.28739516 3.29108169 -3.875 1.75 C-3.15054687 1.41484375 -2.42609375 1.0796875 -1.6796875 0.734375 C-1.12539063 0.49203125 -0.57109375 0.2496875 0 0 Z M0 7 C0 8.32 0 9.64 0 11 C0.99 11.33 1.98 11.66 3 12 C3.33 10.68 3.66 9.36 4 8 C2.68 7.67 1.36 7.34 0 7 Z " fill="#161717" transform="translate(20,38)"/>
<path d="M0 0 C0.66 0 1.32 0 2 0 C3.625 2 3.625 2 5 4 C5.5775 3.649375 6.155 3.29875 6.75 2.9375 C9.35801776 1.85082593 10.39417629 2.06934867 13 3 C13.36625971 7.51720311 13.36625971 7.51720311 11.625 9.8125 C10 11 10 11 8 11 C8.33 9.35 8.66 7.7 9 6 C8.34 6 7.68 6 7 6 C6.67 7.32 6.34 8.64 6 10 C3.69 10.33 1.38 10.66 -1 11 C-0.67 7.37 -0.34 3.74 0 0 Z " fill="#171615" transform="translate(6,70)"/>
<path d="M0 0 C2.97 0.99 5.94 1.98 9 3 C9.33 2.34 9.66 1.68 10 1 C10.66 1.66 11.32 2.32 12 3 C10.68 5.97 9.36 8.94 8 12 C3.87248551 11.39301257 0.6678852 9.96189209 -3 8 C-2.67 7.01 -2.34 6.02 -2 5 C3.75 6.875 3.75 6.875 6 8 C6 7.34 6 6.68 6 6 C3.69 5.01 1.38 4.02 -1 3 C-0.67 2.01 -0.34 1.02 0 0 Z " fill="#030405" transform="translate(156,114)"/>
<path d="M0 0 C3.63 0 7.26 0 11 0 C10.67 1.32 10.34 2.64 10 4 C10.33 5.32 10.66 6.64 11 8 C7.37 8 3.74 8 0 8 C0.33 6.68 0.66 5.36 1 4 C0.67 2.68 0.34 1.36 0 0 Z " fill="#020202" transform="translate(162,83)"/>
<path d="M0 0 C3.43595166 1.52708963 6.11912454 3.59927045 9 6 C8.67 6.99 8.34 7.98 8 9 C7.34 9 6.68 9 6 9 C6 9.99 6 10.98 6 12 C1.62140745 11.49477778 -0.81651224 8.82172778 -4 6 C-3.525625 5.566875 -3.05125 5.13375 -2.5625 4.6875 C-0.76313043 2.97690387 -0.76313043 2.97690387 0 0 Z " fill="#030303" transform="translate(148,129)"/>
<path d="M0 0 C1.8871875 0.0309375 1.8871875 0.0309375 3.8125 0.0625 C4.1425 2.3725 4.4725 4.6825 4.8125 7.0625 C2.06171116 7.97942961 0.45301087 8.17136083 -2.375 8.125 C-4.2621875 8.0940625 -4.2621875 8.0940625 -6.1875 8.0625 C-6.87457555 5.57185112 -7.1875 3.68363708 -7.1875 1.0625 C-4.43671116 0.14557039 -2.82801087 -0.04636083 0 0 Z " fill="#040405" transform="translate(168.1875,73.9375)"/>
<path d="M0 0 C3.81684226 1.55500981 6.19195732 4.03595495 9 7 C8.67 7.99 8.34 8.98 8 10 C7.34 10 6.68 10 6 10 C5.34 9.34 4.68 8.68 4 8 C4.33 9.32 4.66 10.64 5 12 C2 12 2 12 0.39453125 10.6875 C-0.12753906 10.130625 -0.64960938 9.57375 -1.1875 9 C-1.71730469 8.443125 -2.24710938 7.88625 -2.79296875 7.3125 C-3.19128906 6.879375 -3.58960938 6.44625 -4 6 C-3.67 5.01 -3.34 4.02 -3 3 C-1.02 3.495 -1.02 3.495 1 4 C0.34 3.01 -0.32 2.02 -1 1 C-0.67 0.67 -0.34 0.34 0 0 Z " fill="#050608" transform="translate(140,138)"/>
<path d="M0 0 C2.97 0.495 2.97 0.495 6 1 C7.36884358 5.51718381 6.47075246 8.58774263 5 13 C2.69 12.34 0.38 11.68 -2 11 C-1.34 7.37 -0.68 3.74 0 0 Z M2 3 C2 3.66 2 4.32 2 5 C2.66 5 3.32 5 4 5 C4 4.34 4 3.68 4 3 C3.34 3 2.68 3 2 3 Z " fill="#030304" transform="translate(102,3)"/>
<path d="M0 0 C6 7.4 6 7.4 6 11 C3.69 11.33 1.38 11.66 -1 12 C-1.33 10.68 -1.66 9.36 -2 8 C-2.66 8 -3.32 8 -4 8 C-4.25 5.6875 -4.25 5.6875 -4 3 C-2 1.1875 -2 1.1875 0 0 Z M-2 4 C-1.34 4.66 -0.68 5.32 0 6 C0 5.34 0 4.68 0 4 C-0.66 4 -1.32 4 -2 4 Z M1 8 C2 10 2 10 2 10 Z " fill="#020203" transform="translate(128,148)"/>
<path d="M0 0 C0.66 0 1.32 0 2 0 C2.33 0.66 2.66 1.32 3 2 C3.99 2.33 4.98 2.66 6 3 C5.67 5.64 5.34 8.28 5 11 C2.36 11 -0.28 11 -3 11 C-3.66 8.36 -4.32 5.72 -5 3 C-3.68 3 -2.36 3 -1 3 C-0.67 2.01 -0.34 1.02 0 0 Z " fill="#253187" transform="translate(88,3)"/>
<path d="M0 0 C3.33489446 0.60634445 3.6632916 1.31621832 5.5625 4 C6.30809085 5.15623935 7.04260517 6.32000522 7.75 7.5 C7.42 8.16 7.09 8.82 6.75 9.5 C3.75 8.5 3.75 8.5 1.75 6.5 C2.41 8.15 3.07 9.8 3.75 11.5 C2.76 11.5 1.77 11.5 0.75 11.5 C-1.8065043 8.9434957 -3.14942296 7.38507798 -3.5625 3.75 C-3.14375344 0.73502476 -2.96499078 0.65888684 0 0 Z " fill="#040405" transform="translate(134.25,144.5)"/>
<path d="M0 0 C3.83206182 0.41427695 6.08025204 1.51280729 9 4 C8.67 5.98 8.34 7.96 8 10 C4.39703406 10.41176754 3.21597933 10.1535853 0.1875 8 C-0.534375 7.34 -1.25625 6.68 -2 6 C-1.125 1.125 -1.125 1.125 0 0 Z M1 3 C1 3.66 1 4.32 1 5 C3.475 5.99 3.475 5.99 6 7 C6 6.34 6 5.68 6 5 C3.525 4.01 3.525 4.01 1 3 Z " fill="#040404" transform="translate(152,123)"/>
<path d="M0 0 C0.144375 0.598125 0.28875 1.19625 0.4375 1.8125 C0.8872439 3.56150404 1.42892341 5.28677023 2 7 C1.113125 6.9175 0.22625 6.835 -0.6875 6.75 C-4.69008159 7.05208163 -6.12835434 8.29727467 -9 11 C-9.33 10.01 -9.66 9.02 -10 8 C-9.67 7.34 -9.34 6.68 -9 6 C-9.66 6 -10.32 6 -11 6 C-11 5.01 -11 4.02 -11 3 C-4.5 0 -4.5 0 0 0 Z " fill="#050506" transform="translate(168,57)"/>
<path d="M0 0 C2.97 0 5.94 0 9 0 C9.66 1.32 10.32 2.64 11 4 C10.01 5.485 10.01 5.485 9 7 C7.125 7.36328125 7.125 7.36328125 5 7.3125 C4.29875 7.30863281 3.5975 7.30476563 2.875 7.30078125 C1 7 1 7 -1 5 C-0.625 2.375 -0.625 2.375 0 0 Z M2 2 C2 2.66 2 3.32 2 4 C4.475 4.495 4.475 4.495 7 5 C7.33 4.34 7.66 3.68 8 3 C5.03 2.505 5.03 2.505 2 2 Z " fill="#020202" transform="translate(162,92)"/>
<path d="M0 0 C3.98542514 1.36643148 6.92539863 3.10109014 10 6 C10 6.99 10 7.98 10 9 C5.83861737 9.08159574 2.0527516 8.98248524 -2 8 C-2 7.34 -2 6.68 -2 6 C-1.01 6 -0.02 6 1 6 C0.67 4.02 0.34 2.04 0 0 Z " fill="#020202" transform="translate(159,105)"/>
<path d="M0 0 C1.65 1.65 3.3 3.3 5 5 C4.360625 5.103125 3.72125 5.20625 3.0625 5.3125 C2.381875 5.539375 1.70125 5.76625 1 6 C0.67 6.99 0.34 7.98 0 9 C-0.66 9 -1.32 9 -2 9 C-2 9.99 -2 10.98 -2 12 C-3.9375 11.1875 -3.9375 11.1875 -6 10 C-6.33 9.01 -6.66 8.02 -7 7 C-4.66666667 4.66666667 -2.33333333 2.33333333 0 0 Z " fill="#030304" transform="translate(146,25)"/>
<path d="M0 0 C0 0.99 0 1.98 0 3 C-1.32 3.33 -2.64 3.66 -4 4 C-3.01 4.66 -2.02 5.32 -1 6 C-1.33 6.99 -1.66 7.98 -2 9 C-5.3 7.35 -8.6 5.7 -12 4 C-12 3.01 -12 2.02 -12 1 C-10.56274129 0.83126522 -9.12518162 0.66509263 -7.6875 0.5 C-6.88699219 0.4071875 -6.08648437 0.314375 -5.26171875 0.21875 C-3 0 -3 0 0 0 Z " fill="#030304" transform="translate(172,100)"/>
<path d="M0 0 C0 0.66 0 1.32 0 2 C-3.96 2.66 -7.92 3.32 -12 4 C-12 3.01 -12 2.02 -12 1 C-10.56496445 0.63597631 -9.12683494 0.28413409 -7.6875 -0.0625 C-6.88699219 -0.25972656 -6.08648437 -0.45695312 -5.26171875 -0.66015625 C-3 -1 -3 -1 0 0 Z " fill="#050505" transform="translate(172,70)"/>
</svg>
