<?xml version="1.0" encoding="UTF-8"?>
<!DOCTYPE svg PUBLIC "-//W3C//DTD SVG 1.1//EN" "http://www.w3.org/Graphics/SVG/1.1/DTD/svg11.dtd">
<!-- Creator: CorelDRAW -->
<svg xmlns="http://www.w3.org/2000/svg" xml:space="preserve" width="6.82666in" height="6.82666in" style="shape-rendering:geometricPrecision; text-rendering:geometricPrecision; image-rendering:optimizeQuality; fill-rule:evenodd; clip-rule:evenodd"
viewBox="0 0 6.82666 6.82666"
 xmlns:xlink="http://www.w3.org/1999/xlink">
 <defs>
  <style type="text/css">
   <![CDATA[
    .fil5 {fill:none}
    .fil2 {fill:#626263}
    .fil4 {fill:#737373}
    .fil1 {fill:#878787}
    .fil3 {fill:#8A8A8A}
    .fil0 {fill:#626263;fill-rule:nonzero}
   ]]>
  </style>
 </defs>
 <g id="Layer_x0020_1">
  <metadata id="CorelCorpID_0Corel-Layer"/>
  <g id="_535034616">
   <path id="_535036536" class="fil0" d="M5.7266 5.97333c0.0589094,0 0.106669,-0.0477598 0.106669,-0.106669 0,-0.0589094 -0.0477598,-0.106669 -0.106669,-0.106669l-3.83024 0c-0.190291,0 -0.363106,-0.0759016 -0.488228,-0.198177 -0.124272,-0.121449 -0.201409,-0.289008 -0.201409,-0.473354 0,-0.184343 0.0771378,-0.351906 0.201409,-0.47335 0.125122,-0.122276 0.297937,-0.198177 0.488228,-0.198177l0.796311 0c0.0589094,0 0.106669,-0.0477598 0.106669,-0.106669 0,-0.0589094 -0.0477598,-0.106669 -0.106669,-0.106669l-0.796311 0c-0.247677,0 -0.473028,0.0992008 -0.636559,0.259012 -0.164382,0.160642 -0.266417,0.382193 -0.266417,0.625854 0,0.243661 0.102035,0.465209 0.266417,0.625858 0.163531,0.159811 0.388882,0.259012 0.636559,0.259012l3.83024 0z"/>
   <g>
    <path id="_535036080" class="fil0" d="M3.67472 1.49333c-0.0589094,0 -0.106669,0.0477598 -0.106669,0.106669 0,0.0589094 0.0477598,0.106669 0.106669,0.106669l0.40463 0c0.352638,0 0.673043,0.140807 0.905165,0.367654 0.231272,0.226012 0.374827,0.537807 0.374827,0.880811 0,0.343 -0.143555,0.654795 -0.374827,0.880811 -0.232122,0.226843 -0.552528,0.36765 -0.905165,0.36765l-1.38667 0c-0.0589094,0 -0.106669,0.0477598 -0.106669,0.106669 0,0.0589094 0.0477598,0.106669 0.106669,0.106669l1.38667 0c0.410024,0 0.782965,-0.164106 1.0535,-0.428484 0.271382,-0.265217 0.439835,-0.630996 0.439835,-1.03331 0,-0.402323 -0.168453,-0.768106 -0.439835,-1.03331 -0.270531,-0.264386 -0.643472,-0.428488 -1.0535,-0.428488l-0.40463 0z"/>
    <g>
     <g>
      <g>
       <path id="_535036320" class="fil1" d="M1.31679 1.12978l1.03764 0 0 0.197646 -1.03764 0c-0.0452913,0 -0.0823622,-0.0444724 -0.0823622,-0.0988228l0 0c0,-0.0543504 0.037063,-0.0988228 0.0823622,-0.0988228z"/>
       <polygon id="_535036608" class="fil2" points="1.76008,1.12978 2.22266,1.12978 2.22266,1.32742 1.76008,1.32742 "/>
      </g>
      <g>
       <path id="_535035240" class="fil1" d="M1.31679 1.92036l1.03764 0 0 0.197642 -1.03764 0c-0.0452913,0 -0.0823622,-0.0444685 -0.0823622,-0.0988228l0 0c0,-0.0543504 0.037063,-0.0988189 0.0823622,-0.0988189z"/>
       <polygon id="_535035144" class="fil2" points="1.76008,1.92036 2.22266,1.92036 2.22266,2.118 1.76008,2.118 "/>
      </g>
     </g>
     <path id="_535035696" class="fil3" d="M3.1159 1.00976c0.107315,0.0831339 0.191591,0.194886 0.241181,0.323575l0.263205 0c0.0589094,0 0.106669,0.0477598 0.106669,0.106669l0 0.32c0,0.0589094 -0.0477598,0.106669 -0.106669,0.106669l-0.263205 0c-0.0495906,0.128689 -0.133866,0.240441 -0.241185,0.323575 -0.126457,0.0979606 -0.28465,0.156425 -0.455614,0.156425l-0.533331 0c-0.0589094,0 -0.106669,-0.0477598 -0.106669,-0.106669l0 -1.28c0,-0.0589094 0.0477598,-0.106669 0.106669,-0.106669l0.533331 0c0.170965,0 0.329161,0.0584646 0.455618,0.156425zm-0.533819 0.468248c0.067374,0 0.121996,0.054622 0.121996,0.121996 0,0.067374 -0.054622,0.121996 -0.121996,0.121996 -0.067374,0 -0.121996,-0.054622 -0.121996,-0.121996 0,-0.067374 0.054622,-0.121996 0.121996,-0.121996z"/>
     <polygon id="_535035792" class="fil4" points="3.4922,1.33333 3.59886,1.33333 3.59886,1.86667 3.4922,1.86667 "/>
     <path id="_535034520" class="fil4" d="M3.1159 1.00976c0.00464173,0.00359843 0.00924016,0.00725197 0.0137953,0.0109528 -0.0259173,0.019248 -0.0503622,0.0403583 -0.0731417,0.0631378 -0.118795,0.118795 -0.192276,0.282921 -0.192276,0.464209 0,0.181287 0.0734803,0.345413 0.192276,0.464209 0.0413386,0.0413386 0.0881732,0.077189 0.139307,0.106366 -0.00640551,0.00661417 -0.0129331,0.0131063 -0.0195748,0.0194843 -0.0507283,-0.0296772 -0.0972874,-0.0657047 -0.138583,-0.107 -0.123626,-0.123626 -0.200094,-0.294421 -0.200094,-0.483059 0,-0.188638 0.0764685,-0.359433 0.200094,-0.483059 0.0219803,-0.0219803 0.0454567,-0.0424606 0.0702559,-0.0612953 0.00265748,0.00200394 0.00531102,0.00401575 0.00794094,0.00605512zm0.0713976 0.0629094c0.006,0.00599606 0.0118937,0.0120984 0.017689,0.0182953 -0.092815,0.120972 -0.149339,0.281264 -0.149339,0.457094 0,0.188425 0.0649016,0.359016 0.169827,0.482484 0.00773622,0.0091063 0.0156929,0.0179528 0.0238583,0.0265315 -0.00529134,0.00679921 -0.010689,0.0135079 -0.0162087,0.0201181 -0.00830709,-0.00875591 -0.0164134,-0.0177795 -0.0242992,-0.0270591 -0.109193,-0.128488 -0.176732,-0.306012 -0.176732,-0.502075 0,-0.182831 0.0587362,-0.349531 0.155205,-0.47539zm0.0959409 0.117488c0.00464961,0.00703543 0.00918504,0.0141496 0.0135984,0.0213465 -0.067752,0.0948898 -0.107622,0.211067 -0.107622,0.336555 0,0.145051 0.0532598,0.277665 0.141291,0.379343 -0.00372441,0.0075748 -0.0075748,0.0150787 -0.0115472,0.0225118 -0.0953386,-0.106705 -0.153299,-0.247516 -0.153299,-0.401854 0,-0.133984 0.043685,-0.257772 0.117579,-0.357902z"/>
    </g>
   </g>
  </g>
 </g>
 <rect class="fil5" width="6.82666" height="6.82666"/>
</svg>
